<svg width="24" height="24" viewBox="0 0 24 24" fill="none" xmlns="http://www.w3.org/2000/svg">
<path d="M13.5785 6.49846C13.2249 6.07418 12.5944 6.01685 12.1701 6.37042C11.7458 6.72398 11.6885 7.35455 12.042 7.77882L13.5785 6.49846ZM16.8614 12L17.6297 12.6402C17.9387 12.2694 17.9387 11.7307 17.6297 11.3598L16.8614 12ZM12.042 16.2212C11.6885 16.6455 11.7458 17.2761 12.1701 17.6296C12.5944 17.9832 13.2249 17.9259 13.5785 17.5016L12.042 16.2212ZM7.13864 11C6.58636 11 6.13864 11.4477 6.13864 12C6.13864 12.5523 6.58636 13 7.13864 13V11ZM12.042 7.77882L16.0932 12.6402L17.6297 11.3598L13.5785 6.49846L12.042 7.77882ZM16.0932 11.3598L12.042 16.2212L13.5785 17.5016L17.6297 12.6402L16.0932 11.3598ZM16.8614 11L7.13864 11V13L16.8614 13V11ZM19.0711 4.92893C22.9763 8.83418 22.9763 15.1658 19.0711 19.0711L20.4853 20.4853C25.1716 15.799 25.1716 8.20101 20.4853 3.51472L19.0711 4.92893ZM19.0711 19.0711C15.1658 22.9763 8.83418 22.9763 4.92893 19.0711L3.51472 20.4853C8.20101 25.1716 15.799 25.1716 20.4853 20.4853L19.0711 19.0711ZM4.92893 19.0711C1.02369 15.1658 1.02369 8.83418 4.92893 4.92893L3.51472 3.51472C-1.17157 8.20101 -1.17157 15.799 3.51472 20.4853L4.92893 19.0711ZM4.92893 4.92893C8.83418 1.02369 15.1658 1.02369 19.0711 4.92893L20.4853 3.51472C15.799 -1.17157 8.20101 -1.17157 3.51472 3.51472L4.92893 4.92893Z" fill="white"/>
</svg>
