<svg width="24" height="24" viewBox="0 0 24 24" fill="none" xmlns="http://www.w3.org/2000/svg">
<path d="M0 22.9999C-6.2108e-05 23.5522 0.447603 23.9999 0.999888 24C1.55217 24.0001 1.99994 23.5524 2 23.0001L0 22.9999ZM1.00046 18.8745L2.00046 18.8746L1.00046 18.8745ZM12.6875 15.75C13.2398 15.75 13.6875 15.3023 13.6875 14.75C13.6875 14.1977 13.2398 13.75 12.6875 13.75V15.75ZM23 17.125C23.5523 17.125 24 16.6773 24 16.125C24 15.5727 23.5523 15.125 23 15.125V17.125ZM16.8125 15.125C16.2602 15.125 15.8125 15.5727 15.8125 16.125C15.8125 16.6773 16.2602 17.125 16.8125 17.125V15.125ZM18.9062 19.2186C18.9062 19.7709 19.354 20.2186 19.9062 20.2186C20.4585 20.2186 20.9062 19.7709 20.9062 19.2186H18.9062ZM20.9062 13.0311C20.9062 12.4788 20.4585 12.0311 19.9062 12.0311C19.354 12.0311 18.9062 12.4788 18.9062 13.0311H20.9062ZM13.75 5.125C13.75 6.85089 12.3509 8.25 10.625 8.25V10.25C13.4555 10.25 15.75 7.95546 15.75 5.125H13.75ZM10.625 8.25C8.89911 8.25 7.5 6.85089 7.5 5.125H5.5C5.5 7.95546 7.79454 10.25 10.625 10.25V8.25ZM7.5 5.125C7.5 3.39911 8.89911 2 10.625 2V0C7.79454 0 5.5 2.29454 5.5 5.125H7.5ZM10.625 2C12.3509 2 13.75 3.39911 13.75 5.125H15.75C15.75 2.29454 13.4555 0 10.625 0V2ZM2 23.0001L2.00046 18.8746L0.000463724 18.8744L0 22.9999L2 23.0001ZM5.12546 13.75C2.29523 13.75 0.000781894 16.0442 0.000463724 18.8744L2.00046 18.8746C2.00066 17.1489 3.39971 15.75 5.12546 15.75V13.75ZM5.12546 15.75H12.6875V13.75H5.12546V15.75ZM23 15.125H19.9062V17.125H23V15.125ZM19.9062 15.125H16.8125V17.125H19.9062V15.125ZM20.9062 19.2186V16.125H18.9062V19.2186H20.9062ZM20.9062 16.125V13.0311H18.9062V16.125H20.9062Z" fill="white"/>
</svg>
