<svg width="24" height="24" viewBox="0 0 24 24" fill="none" xmlns="http://www.w3.org/2000/svg">
<path d="M6.49839 10.4215C6.07411 10.7751 6.01679 11.4056 6.37035 11.8299C6.72392 12.2542 7.35448 12.3115 7.77876 11.958L6.49839 10.4215ZM12 7.13857L12.6402 6.37035C12.2693 6.06131 11.7306 6.06131 11.3598 6.37035L12 7.13857ZM16.2212 11.958C16.6455 12.3115 17.276 12.2542 17.6296 11.8299C17.9831 11.4056 17.9258 10.7751 17.5015 10.4215L16.2212 11.958ZM11 16.8614C11 17.4136 11.4477 17.8614 12 17.8614C12.5523 17.8614 13 17.4136 13 16.8614H11ZM7.77876 11.958L12.6402 7.90679L11.3598 6.37035L6.49839 10.4215L7.77876 11.958ZM11.3598 7.90679L16.2212 11.958L17.5015 10.4215L12.6402 6.37035L11.3598 7.90679ZM11 7.13857V16.8614H13V7.13857H11ZM19.0711 4.92893C22.9763 8.83418 22.9763 15.1658 19.0711 19.0711L20.4853 20.4853C25.1716 15.799 25.1716 8.20101 20.4853 3.51472L19.0711 4.92893ZM19.0711 19.0711C15.1658 22.9763 8.83418 22.9763 4.92893 19.0711L3.51472 20.4853C8.20101 25.1716 15.799 25.1716 20.4853 20.4853L19.0711 19.0711ZM4.92893 19.0711C1.02369 15.1658 1.02369 8.83418 4.92893 4.92893L3.51472 3.51472C-1.17157 8.20101 -1.17157 15.799 3.51472 20.4853L4.92893 19.0711ZM4.92893 4.92893C8.83418 1.02369 15.1658 1.02369 19.0711 4.92893L20.4853 3.51472C15.799 -1.17157 8.20101 -1.17157 3.51472 3.51472L4.92893 4.92893Z" fill="white"/>
</svg>
